<svg id="Capa_1" enable-background="new 0 0 512 512" height="512" viewBox="0 0 512 512" width="512" xmlns="http://www.w3.org/2000/svg"><g><path d="m176.968 204.93c-4.142 0-7.5 3.357-7.5 7.5v15.187c0 4.142 3.358 7.5 7.5 7.5s7.5-3.358 7.5-7.5v-15.187c0-4.143-3.358-7.5-7.5-7.5z"/><path d="m335.032 204.93c-4.142 0-7.5 3.357-7.5 7.5v15.187c0 4.142 3.358 7.5 7.5 7.5s7.5-3.358 7.5-7.5v-15.187c0-4.143-3.358-7.5-7.5-7.5z"/><path d="m281.764 221.51c-3.123-2.722-7.861-2.396-10.582.727-3.833 4.398-9.366 6.92-15.182 6.92s-11.35-2.522-15.182-6.92c-2.722-3.123-7.459-3.447-10.582-.727-3.123 2.722-3.448 7.459-.727 10.582 6.682 7.667 16.338 12.064 26.491 12.064s19.809-4.397 26.491-12.064c2.721-3.123 2.396-7.861-.727-10.582z"/><path d="m405.281 324.655c3.479 1.746 7.401 2.735 11.552 2.735 14.249 0 25.842-11.592 25.842-25.842v-25.193c27.249-3.677 48.329-27.071 48.329-55.311 0-16.053-6.82-30.535-17.702-40.729-19.221-103.701-110.222-180.315-217.302-180.315-26.706 0-52.79 4.689-77.529 13.937-3.88 1.451-5.85 5.771-4.399 9.651s5.772 5.85 9.651 4.399c23.053-8.617 47.371-12.987 72.277-12.987 51.19 0 99.529 18.542 137.356 52.46h-101.998c-8.063-7.32-18.365-11.221-29.135-11.221h-12.446c-10.801 0-21.094 3.921-29.135 11.221h-101.997c11.367-10.189 23.775-19.066 37.01-26.47 3.615-2.022 4.906-6.592 2.884-10.207s-6.592-4.906-10.207-2.884c-57.089 31.935-97.605 87.521-109.633 152.418-10.883 10.194-17.702 24.676-17.702 40.729 0 28.24 21.081 51.633 48.329 55.311v25.193c0 14.25 11.593 25.842 25.842 25.842 4.151 0 8.073-.989 11.552-2.735 13.101 17.073 29.432 31.442 48.049 42.633-25.547 18.661-62.308 59.1-62.308 137.21 0 4.142 3.358 7.5 7.5 7.5h312.077c4.142 0 7.5-3.358 7.5-7.5 0-26.338-4.27-50.53-12.69-71.906-1.518-3.854-5.872-5.747-9.727-4.229-3.854 1.518-5.747 5.873-4.229 9.727 6.93 17.593 10.797 37.379 11.521 58.908h-44.792v-19.001c0-16.993-10.64-32.17-26.519-38.035 12.401-15.375 20.304-34.517 21.697-55.415.002-.032.006-.063.008-.095 7.747 6.514 16.421 15.409 24.287 27.172 2.303 3.443 6.961 4.368 10.403 2.065 3.443-2.302 4.368-6.96 2.065-10.404-11.307-16.908-24.14-28.516-34.343-35.993 18.624-11.191 34.958-25.563 48.062-42.639zm22.393-23.106c0 5.979-4.864 10.842-10.842 10.842-6.011 0-10.838-4.918-10.842-10.837 0-.002 0-.003 0-.005v-27.535c0-5.978 4.863-10.842 10.842-10.842 2.322 0 4.644.777 6.541 2.219 2.725 2.073 4.301 5.303 4.301 8.622zm48.329-80.504c0 21.055-16.022 38.438-36.486 40.602-.942-1.722-2.078-3.323-3.373-4.779 2.447-11.999 3.584-24.347 3.584-35.823 0-13.641-1.545-27.562-4.563-40.829 23.761.346 40.838 19.199 40.838 40.829zm-20.548-52.007c-7.52-2.928-15.856-4.293-24.328-3.674-3.518-11.071-8.339-22.457-14.434-33.434h25.205c5.711 11.893 10.247 24.312 13.557 37.108zm-46.985-86.578c9.708 10.647 18.228 22.195 25.44 34.471-11.516 0-85.505 0-97.056 0-8.887-8.887-20.013-14.533-31.178-16.689.081-6.046-1.139-12.204-3.552-17.781h106.346zm-105.556 32.529c17.876 3.521 32.199 17.701 35.657 36.014.012.063.022.127.034.191 1.73 9.379.683 17.611-6.649 23.645-8.634 7.106-29.46 6.45-44.621-8.71-6.996-6.992-11.268-15.852-12.679-24.787 12.809-3.808 23.427-13.423 28.258-26.353zm-53.137-43.75h12.446c15.448 0 28.457 12.518 28.457 28.457 0 14.503-10.946 26.54-24.994 28.238 0 0-.001 0-.002 0-3.091.372-4.061.155-15.907.218-1.153 0-2.307-.079-3.461-.218 0 0-.001 0-.002 0-13.533-1.636-24.253-12.879-24.958-26.822-.806-16.49 12.431-29.873 28.421-29.873zm-12.432 70.103c-1.469 9.303-5.956 18.067-12.679 24.787-8.498 8.498-19.796 13.21-31.814 13.271-5.339.047-10.458-2.073-14.297-5.913-6.164-6.165-6.755-13.639-5.158-22.297.011-.062.021-.125.033-.187 3.32-17.587 16.839-32.14 35.657-36.015 4.828 12.926 15.444 22.545 28.258 26.354zm-133.815-58.882h106.346c-2.467 5.701-3.631 11.883-3.552 17.781-12.192 2.392-23.053 8.491-31.178 16.689-11.549 0-85.539 0-97.055 0 7.211-12.276 15.732-23.824 25.439-34.47zm-31.258 138.585c0 12.261 1.311 24.746 3.584 35.823-1.294 1.456-2.429 3.056-3.371 4.776-20.48-2.174-36.488-19.552-36.488-40.599 0-21.703 17.144-40.484 40.838-40.829-2.672 11.748-4.563 26.896-4.563 40.829zm8.602-55.681c-8.236-.591-16.404.614-24.328 3.674 3.31-12.796 7.846-25.215 13.557-37.107h25.205c-5.879 10.585-10.76 21.869-14.434 33.433zm25.136 136.185v.005c-.004 5.878-4.795 10.837-10.842 10.837-5.978 0-10.842-4.863-10.842-10.842v-27.535c0-5.861 4.813-10.842 10.842-10.842 5.978 0 10.842 4.863 10.842 10.842zm46.369 176.45v19.001h-44.794c2.01-60.482 28.2-94.635 49.605-112.568.002.033.006.066.009.099 1.39 20.906 9.294 40.055 21.699 55.434-15.627 5.775-26.519 20.833-26.519 38.034zm192.242 0v19.001h-177.242v-19.001c0-13.471 10.445-24.468 23.62-25.454.898.541 24.901 24.38 65 24.38 23.746 0 45.868-8.098 65-24.38 13.533 1.019 23.622 12.337 23.622 25.454zm-4.593-100.102c0 46.251-37.695 84.028-84.028 84.028-46.222 0-84.029-37.683-84.029-84.028v-1.377c5.042 2.347 10.209 4.478 15.467 6.378 2.566 35.624 32.457 63.74 68.562 63.74 35.718 0 65.965-27.696 68.561-63.74 5.258-1.901 10.425-4.032 15.467-6.378zm-136.833 9.94c16.251 4.35 34.403 6.841 52.805 6.841 17.954 0 36.185-2.391 52.805-6.841-4.867 25.774-27.407 43.802-52.805 43.802-25.585 0-48.004-18.249-52.805-43.802zm52.805-8.159c-54.876 0-106.789-23.357-138.349-65.395 2.287-4.051 3.358-8.464 3.358-12.734v-27.535c0-14.263-11.606-25.842-25.842-25.842-1.862 0-3.767.214-5.571.603-1.548-9.062-2.325-18.609-2.325-27.729 0-32.6 9.395-63.433 25.446-89.115h51.539c-2.657 5.179-4.544 10.721-5.602 16.488-2.503 13.639-.474 25.908 9.293 35.675 17.938 17.927 49.352 10.615 67.325-7.358 9.109-9.113 15.06-20.878 16.98-33.583h7.495c1.857 12.283 7.531 24.13 16.98 33.583 11.311 11.311 26.35 17.584 42.346 17.664 9.085.074 18.113-3.449 24.979-10.306 9.738-9.739 11.773-21.79 9.341-35.401-.016-.091-.031-.182-.048-.272-1.058-5.768-2.945-11.311-5.602-16.489h51.539c16.269 26.031 25.446 56.894 25.446 89.115 0 9.716-.877 19.249-2.325 27.729-1.91-.412-3.887-.603-5.571-.603-14.25 0-25.842 11.593-25.842 25.842v27.535c0 4.344 1.098 8.731 3.358 12.734-30.246 40.289-81.085 65.394-138.348 65.394z"/></g></svg>